HIERARCHY
ROOT Hips
{
	OFFSET -0.001795 -0.223333 0.028219
	CHANNELS 6 Xposition Yposition Zposition Zrotation Yrotation Xrotation 
	JOINT LeftUpLeg
	{
		OFFSET 0.069520 -0.091406 -0.006815
		CHANNELS 3 Zrotation Yrotation Xrotation
		JOINT LeftLeg
		{
			OFFSET 0.034277 -0.375199 -0.004496
			CHANNELS 3 Zrotation Yrotation Xrotation
			JOINT LeftFoot
			{
				OFFSET -0.013596 -0.397961 -0.043693
				CHANNELS 3 Zrotation Yrotation Xrotation
				JOINT LeftToe
				{
					OFFSET 0.026358 -0.055791 0.119288
					CHANNELS 3 Zrotation Yrotation Xrotation
					End Site
					{
						OFFSET 0.000000 0.000000 0.000000
					}
				}
			}
		}
	}
	JOINT RightUpLeg
	{
		OFFSET -0.067670 -0.090522 -0.004320
		CHANNELS 3 Zrotation Yrotation Xrotation
		JOINT RightLeg
		{
			OFFSET -0.038290 -0.382569 -0.008850
			CHANNELS 3 Zrotation Yrotation Xrotation
			JOINT RightFoot
			{
				OFFSET 0.015774 -0.398415 -0.042312
				CHANNELS 3 Zrotation Yrotation Xrotation
				JOINT RightToe
				{
					OFFSET -0.025372 -0.048144 0.123348
					CHANNELS 3 Zrotation Yrotation Xrotation
					End Site
					{
						OFFSET 0.000000 0.000000 0.000000
					}
				}
			}
		}
	}
	JOINT Spine
	{
		OFFSET -0.002533 0.108963 -0.026696
		CHANNELS 3 Zrotation Yrotation Xrotation
		JOINT Spine1
		{
			OFFSET 0.005487 0.135180 0.001092
			CHANNELS 3 Zrotation Yrotation Xrotation
			JOINT Spine2
			{
				OFFSET 0.001457 0.052922 0.025425
				CHANNELS 3 Zrotation Yrotation Xrotation
				JOINT Neck
				{
					OFFSET -0.002778 0.213870 -0.042857
					CHANNELS 3 Zrotation Yrotation Xrotation
					JOINT Head
					{
						OFFSET 0.005152 0.064970 0.051349
						CHANNELS 3 Zrotation Yrotation Xrotation
						End Site
						{
							OFFSET 0.000000 0.000000 0.000000
						}
					}
				}
				JOINT LeftShoulder
				{
					OFFSET 0.078845 0.121749 -0.034090
					CHANNELS 3 Zrotation Yrotation Xrotation
					JOINT LeftArm
					{
						OFFSET 0.090977 0.030469 -0.008868
						CHANNELS 3 Zrotation Yrotation Xrotation
						JOINT LeftForeArm
						{
							OFFSET 0.259612 -0.012772 -0.027456
							CHANNELS 3 Zrotation Yrotation Xrotation
							JOINT LeftHand
							{
								OFFSET 0.249234 0.008986 -0.001171
								CHANNELS 3 Zrotation Yrotation Xrotation
								End Site
								{
									OFFSET 0.000000 0.000000 0.000000
								}
							}
						}
					}
				}
				JOINT RightShoulder
				{
					OFFSET -0.081759 0.118833 -0.038615
					CHANNELS 3 Zrotation Yrotation Xrotation
					JOINT RightArm
					{
						OFFSET -0.096012 0.032551 -0.009143
						CHANNELS 3 Zrotation Yrotation Xrotation
						JOINT RightForeArm
						{
							OFFSET -0.253742 -0.013329 -0.021401
							CHANNELS 3 Zrotation Yrotation Xrotation
							JOINT RightHand
							{
								OFFSET -0.255298 0.007772 -0.005559
								CHANNELS 3 Zrotation Yrotation Xrotation
								End Site
								{
									OFFSET 0.000000 0.000000 0.000000
								}
							}
						}
					}
				}
			}
		}
	}
}
MOTION
Frames: 11
Frame Time: 0.050000
0.000000 0.869632 0.000000 -2.807436 0.278181 6.376774 8.398839 -0.864567 -36.305837 -7.875594 2.323134 37.855418 6.763866 12.908828 -7.901503 0.000000 0.000000 0.000000 -6.128058 1.423514 -25.788082 11.000351 -5.405201 59.126185 -8.937304 -22.059151 -1.841225 0.000000 0.000000 0.000000 -5.190128 0.246615 33.099751 -3.205091 1.521245 6.090809 1.193338 2.043319 5.372136 0.660632 1.050296 -17.808496 0.000000 0.000000 0.000000 -15.797329 -38.197196 18.465844 -15.366855 -30.256039 0.726280 61.943340 -38.371170 -21.473134 0.000000 0.000000 0.000000 13.226924 35.746037 17.503795 26.977277 35.694772 4.122662 -71.417788 34.056981 -20.657413 0.000000 0.000000 0.000000 
0.004169 0.873212 0.032942 -3.555335 0.830548 5.691281 8.345363 -0.884412 -33.524458 -7.406689 2.032239 38.707349 6.073942 10.917082 -8.720521 0.000000 0.000000 0.000000 -5.661851 1.595311 -28.552221 11.887927 -5.851517 55.589734 -8.146833 -20.188893 -8.922169 0.000000 0.000000 0.000000 -4.466749 -0.064610 32.736171 -2.413870 1.081567 7.931380 0.055000 2.567363 3.008359 1.411606 0.452584 -14.650374 0.000000 0.000000 0.000000 -15.244226 -38.076714 17.878807 -15.098995 -29.142338 0.751657 68.898889 -39.646753 -25.702368 0.000000 0.000000 0.000000 10.724637 39.252077 18.778499 25.059955 35.722380 3.804490 -74.464494 30.872578 -19.346888 0.000000 0.000000 0.000000 
0.007268 0.876984 0.067089 -2.434140 2.295617 4.895992 6.085667 -1.381452 -28.124226 -5.574442 0.870351 34.345018 5.886921 9.190631 -12.082925 0.000000 0.000000 0.000000 -5.597271 1.638825 -32.615097 10.424841 -5.204757 54.408065 -7.883258 -19.433031 -12.859099 0.000000 0.000000 0.000000 -3.734411 -0.441285 32.190546 -2.679323 1.177725 8.329938 0.716829 1.877545 3.025662 -0.120482 1.328998 -14.342290 0.000000 0.000000 0.000000 -14.635050 -38.276167 17.851005 -15.643046 -30.601170 0.967494 71.431930 -35.180611 -23.737196 0.000000 0.000000 0.000000 7.814027 39.007411 17.396996 21.582075 35.692469 3.040483 -74.912660 29.265930 -18.523196 0.000000 0.000000 0.000000 
0.009583 0.880047 0.102095 -3.330244 3.302413 3.047799 6.879773 -1.100486 -24.537477 -6.230782 0.974594 35.867052 6.454519 9.107812 -16.037974 0.000000 0.000000 0.000000 -3.893572 2.112191 -35.644307 7.895694 -3.802194 54.350302 -7.985229 -19.651975 -6.662466 0.000000 0.000000 0.000000 -1.172017 -1.310608 31.245313 -2.918106 1.299390 7.768670 0.198298 3.250744 5.952626 1.973528 0.374116 -15.803782 0.000000 0.000000 0.000000 -14.308263 -38.739640 17.376314 -15.910444 -29.732137 0.919349 73.448905 -36.935972 -26.450212 0.000000 0.000000 0.000000 7.570522 39.752461 17.889899 18.154178 34.832027 2.022791 -79.488457 24.299167 -15.753683 0.000000 0.000000 0.000000 
0.010892 0.880173 0.139038 -2.179162 5.565729 2.539371 4.734363 -1.313239 -20.247401 -5.317152 0.236546 34.589231 6.512853 7.406479 -18.572583 0.000000 0.000000 0.000000 -4.874703 1.610812 -39.559224 6.044968 -2.940600 51.217894 -6.307917 -15.154530 -4.331208 0.000000 0.000000 0.000000 -0.488185 -1.587443 29.469354 -2.024947 0.678516 9.263977 0.152076 3.143844 3.618819 1.952622 0.097414 -12.464819 0.000000 0.000000 0.000000 -14.605812 -38.293583 16.964601 -21.633244 -29.145329 1.954877 78.019673 -38.516910 -30.271310 0.000000 0.000000 0.000000 8.372178 40.293108 18.635657 18.192856 32.627652 1.844454 -84.975070 23.015793 -16.121689 0.000000 0.000000 0.000000 
0.010605 0.878574 0.178338 -1.857779 6.276849 2.823890 3.864849 -1.302272 -18.184612 -5.073733 -0.009780 35.812044 7.462571 10.308053 -18.638272 0.000000 0.000000 0.000000 -4.357654 1.702435 -40.416013 4.169988 -1.742981 47.892481 -5.076609 -11.458422 -6.641309 0.000000 0.000000 0.000000 1.559482 -2.069507 27.837216 -1.328594 0.225965 9.781503 -0.354331 4.904444 4.126463 1.540499 0.811634 -14.743236 0.000000 0.000000 0.000000 -13.165851 -36.633449 15.138021 -27.241395 -28.578353 2.808935 84.921216 -42.500467 -38.484807 0.000000 0.000000 0.000000 4.079020 37.746838 16.150654 19.132706 34.645471 2.412227 -89.601343 21.144315 -14.766058 0.000000 0.000000 0.000000 
0.008307 0.873849 0.220164 -0.790424 8.439995 2.059349 2.128063 -1.432571 -16.751912 -3.957565 -1.113848 40.190798 7.589972 9.937167 -18.981143 0.000000 0.000000 0.000000 -4.762707 1.201604 -38.851025 3.912655 -2.070239 47.529480 -5.653611 -13.190745 -6.517875 0.000000 0.000000 0.000000 3.174854 -2.492271 26.501600 -0.390812 -0.407600 9.725496 -0.792826 4.307808 3.748997 2.798084 0.004798 -14.190831 0.000000 0.000000 0.000000 -16.451457 -34.088578 14.269301 -30.972033 -25.999189 2.973065 91.461791 -48.767114 -49.163370 0.000000 0.000000 0.000000 5.266849 36.811786 16.206802 18.328230 34.322451 2.160114 -90.828719 20.795949 -14.677607 0.000000 0.000000 0.000000 
0.003447 0.869247 0.263092 -0.413856 10.783206 1.617720 2.786585 -1.657174 -19.249648 -6.836990 -0.785900 50.095339 7.716900 12.197943 -14.423722 0.000000 0.000000 0.000000 -4.563143 0.931804 -37.514878 3.371811 -2.540357 50.441207 -6.055824 -14.402724 -5.881229 0.000000 0.000000 0.000000 4.580118 -2.703029 24.351971 0.450741 -1.050768 10.230492 -1.009596 5.110705 2.671815 3.043823 -0.097304 -13.353911 0.000000 0.000000 0.000000 -19.858224 -32.041962 12.993737 -34.511224 -21.289844 2.604504 102.187036 -54.353011 -64.946122 0.000000 0.000000 0.000000 8.010829 33.968616 16.209060 20.857292 32.253946 2.321836 -94.560013 24.684440 -18.977061 0.000000 0.000000 0.000000 
-0.001926 0.867785 0.305638 -0.359542 12.299440 0.546178 4.856664 -1.941220 -24.460364 -11.455446 1.161842 63.230598 6.890109 13.088748 -5.909972 0.000000 0.000000 0.000000 -3.911648 0.980213 -34.139471 3.450440 -3.305456 52.600860 -6.287331 -14.977804 -8.596637 0.000000 0.000000 0.000000 5.490343 -2.767594 22.866876 0.880549 -1.210043 8.681589 -0.969121 6.165823 3.293553 3.279853 -0.518345 -10.614681 0.000000 0.000000 0.000000 -23.298051 -29.175052 10.923725 -35.699963 -17.213339 1.918609 110.786979 -59.707767 -80.059134 0.000000 0.000000 0.000000 11.637707 32.245456 17.041520 22.172339 29.399329 1.896414 -97.420515 29.167153 -24.317516 0.000000 0.000000 0.000000 
-0.005805 0.871851 0.347220 0.389149 14.481218 0.537975 5.556435 -2.569881 -29.954502 -14.904202 3.091003 70.392009 7.475515 15.683598 0.103168 0.000000 0.000000 0.000000 -3.460135 0.933348 -30.002026 3.073430 -3.754257 52.068404 -6.922380 -17.217648 -10.562914 0.000000 0.000000 0.000000 4.711091 -2.427252 21.086676 1.622653 -1.516538 6.949142 -0.890592 6.856512 3.094917 4.028418 -0.745266 -11.303895 0.000000 0.000000 0.000000 -23.580569 -27.853490 9.385279 -36.844581 -14.222382 1.392388 119.713970 -61.893611 -93.257387 0.000000 0.000000 0.000000 15.557241 29.983306 17.795647 21.696968 28.122290 1.354276 -96.895532 34.297783 -29.276076 0.000000 0.000000 0.000000 
-0.005927 0.881310 0.388130 0.558029 14.680869 0.003109 6.763344 -2.717951 -33.253846 -15.926694 3.996215 69.560856 7.866647 16.379827 -0.829743 0.000000 0.000000 0.000000 -2.996957 1.045238 -25.322505 3.075474 -3.678473 49.819088 -7.070931 -17.875978 -9.390079 0.000000 0.000000 0.000000 3.554015 -2.091079 20.402048 0.905666 -1.078799 6.540810 -0.930977 8.037581 3.046562 4.812762 -0.999844 -12.118074 0.000000 0.000000 0.000000 -21.754308 -26.534796 8.037252 -37.651777 -12.935489 1.089485 127.978235 -60.779483 -102.813973 0.000000 0.000000 0.000000 17.501594 28.867289 18.291532 22.595910 27.412677 1.199450 -98.004786 36.796526 -32.228949 0.000000 0.000000 0.000000 
